<svg viewBox="0 0 1024 1024" xmlns="http://www.w3.org/2000/svg">
	<path d="M316.251 666.789C311.252 671.788 311.252 679.892 316.251 684.891L339.109 707.749C344.108 712.748 352.212 712.748 357.211 707.749L511.646 553.314C511.842 553.118 512.158 553.118 512.354 553.314L666.789 707.749C671.788 712.748 679.892 712.748 684.891 707.749L707.749 684.891C712.748 679.892 712.748 671.788 707.749 666.789L553.314 512.354C553.118 512.158 553.118 511.842 553.314 511.646L707.749 357.211C712.748 352.212 712.748 344.108 707.749 339.109L684.891 316.251C679.892 311.252 671.788 311.252 666.789 316.251L512.354 470.686C512.158 470.882 511.842 470.882 511.646 470.686L357.211 316.251C352.212 311.252 344.108 311.252 339.109 316.251L316.251 339.109C311.252 344.108 311.252 352.212 316.251 357.211L470.686 511.646C470.882 511.842 470.882 512.158 470.686 512.354L316.251 666.789Z"></path>
</svg>
